<svg id="eaf12ff7-9aea-44ad-af08-a969a429ad47" xmlns="http://www.w3.org/2000/svg" viewBox="0 0 926.84 601.94"><defs><style>.cls-1{fill:#f0823a;}.cls-2{fill:#3f3d56;}.cls-3{fill:#fff;}</style></defs><title>undraw_diary_99km</title><rect class="cls-1" x="755.84" y="225.71" width="152" height="152"/><rect class="cls-1" x="480.46" y="445.94" width="284" height="156"/><rect class="cls-1" x="226" y="188.94" width="128" height="186"/><path class="cls-1" d="M869.81,222.05c-5.68,21-25.15,34-25.15,34S834.4,235,840.09,214s25.15-34,25.15-34S875.5,201,869.81,222.05Z" transform="translate(0 -46.06)"/><path class="cls-1" d="M818.1,222.05c5.68,21,25.15,34,25.15,34S853.51,235,847.82,214s-25.15-34-25.15-34S812.41,201,818.1,222.05Z" transform="translate(0 -46.06)"/><path class="cls-2" d="M826.45,217.53c15.6,15.19,17.5,38.53,17.5,38.53s-23.38-1.27-39-16.46-17.51-38.53-17.51-38.53S810.85,202.35,826.45,217.53Z" transform="translate(0 -46.06)"/><path class="cls-2" d="M861.46,217.53C845.86,232.72,844,256.06,844,256.06s23.39-1.27,39-16.46,17.51-38.53,17.51-38.53S877.06,202.35,861.46,217.53Z" transform="translate(0 -46.06)"/><path class="cls-1" d="M184.57,163.66c21.77.47,39.08,16.24,39.08,16.24s-18,15-39.74,14.55-39.08-16.24-39.08-16.24S162.81,163.19,184.57,163.66Z" transform="translate(0 -46.06)"/><path class="cls-1" d="M75.14,89.36c19.67,9.34,42.22,3,42.22,3s-9.34-21.48-29-30.82-42.21-3-42.21-3S55.48,80,75.14,89.36Z" transform="translate(0 -46.06)"/><path class="cls-2" d="M77.14,80.08c21.68-2,40.66,11.75,40.66,11.75S101.63,108.77,80,110.75,39.29,99,39.29,99,55.46,82.06,77.14,80.08Z" transform="translate(0 -46.06)"/><path class="cls-2" d="M156.62,83.83c-2.08,21.67,11.56,40.71,11.56,40.71s17-16.1,19.09-37.77-11.56-40.71-11.56-40.71S158.69,62.16,156.62,83.83Z" transform="translate(0 -46.06)"/><path class="cls-2" d="M258.72,216.74c-11.37,18.57-7.46,41.66-7.46,41.66s22.35-7,33.72-25.57,7.46-41.66,7.46-41.66S270.09,198.18,258.72,216.74Z" transform="translate(0 -46.06)"/><path class="cls-2" d="M225.73,418.59l1.66-1.12a52,52,0,0,1-9.17-28.79c.05-15.06,7.45-29,14.6-42.46,1.33-2.5,2.65-5,3.92-7.48a162.56,162.56,0,0,0,12.71-31.89c11.09-41.23.17-89.87-29.22-130.12C196.91,144.8,162.16,116.88,114,91.37L113,93.14c47.91,25.36,82.44,53.09,105.57,84.77,29,39.76,39.85,87.77,28.91,128.42A161.59,161.59,0,0,1,235,337.83c-1.27,2.48-2.58,5-3.91,7.46-7.26,13.68-14.78,27.83-14.83,43.38A54,54,0,0,0,225.73,418.59Z" transform="translate(0 -46.06)"/><circle class="cls-2" cx="19" cy="28.94" r="19"/><path class="cls-2" d="M372,404H242V216H372Zm-128-2H370V218H244Z" transform="translate(0 -46.06)"/><rect class="cls-3" x="258" y="219.94" width="82" height="2"/><rect class="cls-3" x="257.62" y="241.88" width="82" height="2"/><rect class="cls-3" x="257.25" y="263.82" width="82" height="2"/><rect class="cls-3" x="256.87" y="285.76" width="82" height="2"/><rect class="cls-3" x="256.49" y="307.7" width="82" height="2"/><rect class="cls-3" x="256.11" y="329.64" width="82" height="2"/><rect class="cls-3" x="527.46" y="465.94" width="214" height="2"/><rect class="cls-3" x="527.08" y="488.88" width="214" height="2"/><rect class="cls-3" x="526.71" y="511.82" width="214" height="2"/><rect class="cls-3" x="526.33" y="534.76" width="214" height="2"/><rect class="cls-3" x="525.95" y="557.7" width="214" height="2"/><rect class="cls-3" x="790.84" y="247.71" width="100" height="2"/><rect class="cls-3" x="790.46" y="269.65" width="100" height="2"/><rect class="cls-3" x="790.09" y="291.59" width="100" height="2"/><rect class="cls-3" x="789.71" y="313.53" width="100" height="2"/><rect class="cls-3" x="789.33" y="335.47" width="100" height="2"/><path class="cls-2" d="M787.46,631h-286V473h286Zm-284-2h282V475h-282Z" transform="translate(0 -46.06)"/><polygon class="cls-2" points="662.33 427.96 661.38 427.44 370 266.34 372.34 264.89 662.77 425.46 843.02 360.86 844.79 362.56 662.33 427.96"/><path class="cls-2" d="M926.84,408.77h-154v-154h154Zm-152-2h150v-150h-150Z" transform="translate(0 -46.06)"/></svg>